<?xml version="1.0" encoding="utf-8"?>
<!-- Generator: Adobe Illustrator 22.0.0, SVG Export Plug-In . SVG Version: 6.00 Build 0)  -->
<svg version="1.0" id="Layer_1" xmlns="http://www.w3.org/2000/svg" xmlns:xlink="http://www.w3.org/1999/xlink" x="0px" y="0px"
	 viewBox="0 0 655.9 319.3" style="enable-background:new 0 0 655.9 319.3;" xml:space="preserve">
<style type="text/css">
	.st0{fill:#00A8E5;}
	.st1{fill:#FFDB00;}
	.st2{fill:#756BB0;}
</style>
<rect x="491.7" y="109.7" class="st0" width="96.4" height="48.2"/>
<rect x="491.7" y="157.2" class="st1" width="96.4" height="48.2"/>
<g>
	<path class="st2" d="M88.2,72.8v150.5c0,10.5-2,20.5-6.1,30.2c-4,9.6-9.8,18.1-17.2,25.6c-7.4,7.7-16,13.4-25.6,17.4
		c-9.6,3.9-19.7,5.9-30.2,5.9V263c5.5,0,10.6-1,15.4-3.1s9-4.9,12.6-8.5c3.6-3.6,6.4-7.8,8.5-12.6s3.1-9.9,3.1-15.4V72.8H88.2z
		 M88,46.7H48.6V7.3H88V46.7z"/>
</g>
<g>
	<path class="st2" d="M105.9,163.5c0,2.4,0.1,4.4,0.2,5.9c0.1,1.4,0.2,2.7,0.5,5.4c0.2,2.2,0.3,2.9,0.4,3.7c0.1,0.4,0.2,1.1,0.8,3.7
		c1,4.7,1.4,6.1,1.6,6.6c0.3,0.9,0.5,1.5,0.8,2.6c0.3,0.9,0.9,2.7,1.6,4.6c0.5,1.4,1.5,3.7,2.9,6.5s2.7,4.9,3.5,6.2
		c0.9,1.5,1.9,3.1,3.4,5.1c2,2.7,3.8,4.7,5.6,6.5c0.8,0.8,1.3,1.4,2.2,2.2c1.5,1.4,2.7,2.4,4.3,3.7c1.7,1.3,2.7,2.2,4.3,3.2
		c1.9,1.3,3.4,2.1,4.6,2.8c2.8,1.6,5.4,2.8,7.5,3.6c2.3,0.9,4,1.5,4.5,1.7c0.9,0.3,2.8,0.9,5.2,1.5c3.9,1,6.9,1.3,7.6,1.4
		c1.2,0.1,2.1,0.2,3.9,0.3c2.3,0.2,3.8,0.3,5.9,0.2c2.5,0,4.4-0.2,6.1-0.3c2.4-0.2,4.3-0.5,5.2-0.6c1-0.2,1.9-0.3,3.2-0.6
		c2.5-0.5,4.3-1.1,5.5-1.5c2.3-0.7,3.9-1.4,5-1.9c0.7-0.3,2.7-1.2,5.4-2.5c1.6-0.8,3.6-1.8,6.1-3.4c1.6-1,2.9-2,3.8-2.7l4.6-3.7
		v12.7h38.8V98.9l-19.2,12.3V88.8l19.2-16H222v85.8c0,1.2,0,3,0,5.1c0,2.9-0.1,4.3-0.2,5.9c-0.3,2.8-1,4.8-1.4,6
		c-0.9,2.8-1.9,4.8-2.2,5.5c-0.4,0.8-1.9,3.6-4.6,6.9c-0.6,0.7-2.2,2.6-4.8,4.8c-1.2,1-3.4,2.8-6.6,4.6c-3.6,2-6.8,2.9-8.6,3.4
		c-0.7,0.2-3.1,0.8-6.4,1c-1,0.1-3.2,0.2-6,0c-1.7-0.1-4.7-0.4-8.5-1.5c-3.2-1-5.7-2.2-7.1-3c-4.3-2.4-7-5-8.6-6.6
		c-1.5-1.4-3.4-3.4-5.4-6.4c-2.8-4.3-4-8.2-4.6-10.2c-0.7-2.3-1-4.2-1.2-5.6l-0.1-0.8c-0.3-1.6-0.4-3.3-0.4-4.9v-90h-39.2
		L105.9,163.5z"/>
</g>
<g>
	<g>
		<path id="SVGID_1_" class="st2" d="M343.8,73.4c-7.1,3.1-13.5,7.2-19.1,12.2V73h-37.6v162.2h37.6v-89.7c0-10.6,3.5-19.5,10.6-26.9
			c7.1-7.3,15.8-11,26-11c10,0,18.6,3.7,25.7,11c7.3,7.1,11,16.1,11,26.9v89.7h37.6v-89.8c0-10.6-1.6-20.5-4.9-29.8
			c-3.2-9.3-7.8-17.4-13.8-24.5c-6-7-13.1-12.5-21.5-16.5s-17.6-6-27.9-6C358.8,68.7,350.9,70.2,343.8,73.4"/>
	</g>
</g>
<g>
	<g>
		<path id="SVGID_4_" class="st2" d="M520.8,201.4c-5.8-2.3-10.9-5.7-15.3-10.3c-9.2-9.2-13.8-20.2-13.8-33.2
			c0-13.1,4.6-24.3,13.8-33.5c9.2-9.2,20.3-13.8,33.5-13.8c12.7,0,23.8,4.6,33.5,13.8c9.2,9.2,13.8,20.4,13.8,33.5
			c0,12.9-4.6,24-13.8,33.2c-4.6,4.6-9.7,8-15.4,10.3s-11.7,3.4-18,3.4C532.6,204.9,526.6,203.7,520.8,201.4 M505.1,77.9
			c-10.5,4.5-19.7,10.7-27.6,18.6s-14.1,17.1-18.6,27.6s-6.7,21.8-6.7,33.9c0,11.8,2.2,23,6.7,33.5s10.7,19.7,18.6,27.6
			c7.9,7.9,17.1,14.1,27.6,18.6c10.5,4.5,21.8,6.7,33.9,6.7c12,0,23.3-2.3,33.9-6.7c10.5-4.5,19.7-10.7,27.6-18.6
			c7.9-7.9,14.1-17.1,18.6-27.6s6.7-21.7,6.7-33.5c0-12.1-2.2-23.3-6.7-33.9c-4.5-10.5-10.7-19.7-18.6-27.6
			c-7.9-7.9-17.1-14.1-27.6-18.6s-21.8-6.7-33.9-6.7C526.9,71.1,515.6,73.4,505.1,77.9"/>
	</g>
</g>
<g>
	<g>
		<polygon id="SVGID_7_" class="st2" points="539,155.6 645.6,91.3 610.8,59.5 		"/>
	</g>
</g>
<g>
	<path class="st2" d="M606.7,18.1h-7.6v-2.9h18.4v2.9h-7.6v19.7h-3.2L606.7,18.1L606.7,18.1z"/>
	<path class="st2" d="M620.6,15.2h4.8l7.5,17.1h0.1l7.4-17.1h4.8v22.6H642V19.2h-0.1L634,37.8h-2.1L624,19.2h-0.1v18.6h-3.2V15.2
		H620.6z"/>
</g>
<g>
	<path class="st2" d="M419.1,276.7c0,3.9-0.9,7-2.7,9.3s-4.2,3.5-7.2,3.5c-3.2,0-5.7-1.1-7.4-3.4l-0.2,2.9h-4v-36h4.3v13.4
		c1.8-2.2,4.2-3.3,7.2-3.3s5.5,1.2,7.3,3.5s2.6,5.5,2.6,9.6v0.5H419.1z M414.7,276.2c0-3-0.6-5.2-1.7-6.8s-2.8-2.4-4.9-2.4
		c-2.9,0-4.9,1.3-6.2,4v11c1.3,2.7,3.4,4,6.2,4c2.1,0,3.7-0.8,4.9-2.4S414.7,279.5,414.7,276.2z"/>
	<path class="st2" d="M435.4,289.6c-3.4,0-6.2-1.1-8.4-3.4s-3.2-5.3-3.2-9.1v-0.8c0-2.5,0.5-4.8,1.4-6.7s2.3-3.5,4-4.6
		s3.6-1.7,5.6-1.7c3.3,0,5.9,1.1,7.7,3.3s2.7,5.3,2.7,9.3v1.8H428c0.1,2.5,0.8,4.5,2.2,6.1s3.2,2.3,5.3,2.3c1.5,0,2.8-0.3,3.9-0.9
		s2-1.5,2.8-2.5l2.6,2.1C442.8,288,439.6,289.6,435.4,289.6z M434.9,266.9c-1.8,0-3.2,0.6-4.4,1.9s-1.9,3.1-2.2,5.4H441v-0.3
		c-0.1-2.2-0.7-3.9-1.8-5.1S436.7,266.9,434.9,266.9z"/>
	<path class="st2" d="M473.4,289.6c-3.4,0-6.2-1.1-8.4-3.4s-3.2-5.3-3.2-9.1v-0.8c0-2.5,0.5-4.8,1.4-6.7s2.3-3.5,4-4.6
		s3.6-1.7,5.6-1.7c3.3,0,5.9,1.1,7.7,3.3s2.7,5.3,2.7,9.3v1.8H466c0.1,2.5,0.8,4.5,2.2,6.1s3.2,2.3,5.3,2.3c1.5,0,2.8-0.3,3.9-0.9
		s2-1.5,2.8-2.5l2.6,2.1C480.8,288,477.6,289.6,473.4,289.6z M472.8,266.9c-1.8,0-3.2,0.6-4.4,1.9s-1.9,3.1-2.2,5.4h12.7v-0.3
		c-0.1-2.2-0.7-3.9-1.8-5.1S474.6,266.9,472.8,266.9z"/>
	<path class="st2" d="M490.8,289.1v-22h-4v-3.4h4v-2.6c0-2.7,0.7-4.8,2.2-6.3c1.5-1.5,3.5-2.2,6.2-2.2c1,0,2,0.1,3,0.4l-0.2,3.5
		c-0.7-0.1-1.5-0.2-2.3-0.2c-1.4,0-2.5,0.4-3.3,1.2s-1.1,2-1.1,3.5v2.7h5.4v3.4h-5.4v22H490.8z"/>
	<path class="st2" d="M507.8,289.1v-22h-4v-3.4h4v-2.6c0-2.7,0.7-4.8,2.2-6.3c1.5-1.5,3.5-2.2,6.2-2.2c1,0,2,0.1,3,0.4l-0.2,3.5
		c-0.7-0.1-1.5-0.2-2.3-0.2c-1.4,0-2.5,0.4-3.3,1.2s-1.1,2-1.1,3.5v2.7h5.4v3.4h-5.4v22H507.8z"/>
	<path class="st2" d="M522.6,257.1c0-0.7,0.2-1.3,0.6-1.8s1.1-0.7,1.9-0.7s1.5,0.2,1.9,0.7s0.7,1.1,0.7,1.8s-0.2,1.3-0.7,1.8
		s-1.1,0.7-1.9,0.7s-1.5-0.2-1.9-0.7S522.6,257.8,522.6,257.1z M527.3,289.1H523v-25.4h4.3V289.1z"/>
	<path class="st2" d="M544.8,286.1c1.5,0,2.9-0.5,4.1-1.4s1.8-2.1,1.9-3.5h4.1c-0.1,1.5-0.6,2.8-1.5,4.1s-2.2,2.4-3.7,3.1
		s-3.2,1.2-4.9,1.2c-3.5,0-6.2-1.2-8.2-3.5s-3.1-5.5-3.1-9.5V276c0-2.5,0.5-4.7,1.4-6.6s2.2-3.4,3.9-4.5s3.7-1.6,6-1.6
		c2.8,0,5.2,0.9,7.1,2.6s2.9,3.9,3,6.6h-4.1c-0.1-1.6-0.7-3-1.9-4s-2.5-1.6-4.1-1.6c-2.2,0-3.9,0.8-5.1,2.4s-1.8,3.9-1.8,6.9v0.8
		c0,2.9,0.6,5.2,1.8,6.8S542.5,286.1,544.8,286.1z"/>
	<path class="st2" d="M560.1,257.1c0-0.7,0.2-1.3,0.6-1.8s1.1-0.7,1.9-0.7s1.5,0.2,1.9,0.7s0.7,1.1,0.7,1.8s-0.2,1.3-0.7,1.8
		s-1.1,0.7-1.9,0.7s-1.5-0.2-1.9-0.7S560.1,257.8,560.1,257.1z M564.8,289.1h-4.3v-25.4h4.3V289.1z"/>
	<path class="st2" d="M582.6,289.6c-3.4,0-6.2-1.1-8.4-3.4s-3.2-5.3-3.2-9.1v-0.8c0-2.5,0.5-4.8,1.4-6.7s2.3-3.5,4-4.6
		s3.6-1.7,5.6-1.7c3.3,0,5.9,1.1,7.7,3.3s2.7,5.3,2.7,9.3v1.8h-17.2c0.1,2.5,0.8,4.5,2.2,6.1s3.2,2.3,5.3,2.3c1.5,0,2.8-0.3,3.9-0.9
		s2-1.5,2.8-2.5l2.6,2.1C590,288,586.8,289.6,582.6,289.6z M582,266.9c-1.8,0-3.2,0.6-4.4,1.9s-1.9,3.1-2.2,5.4h12.7v-0.3
		c-0.1-2.2-0.7-3.9-1.8-5.1S583.8,266.9,582,266.9z"/>
	<path class="st2" d="M601.9,263.8l0.1,3.2c1.9-2.4,4.5-3.7,7.6-3.7c5.4,0,8.1,3,8.1,9.1v16.8h-4.3v-16.8c0-1.8-0.4-3.2-1.3-4.1
		s-2.1-1.3-3.8-1.3c-1.4,0-2.6,0.4-3.7,1.1s-1.9,1.7-2.5,3v18.1h-4.3v-25.4L601.9,263.8L601.9,263.8z"/>
	<path class="st2" d="M630.5,257.6v6.1h4.7v3.4h-4.7v15.7c0,1,0.2,1.8,0.6,2.3c0.4,0.5,1.1,0.8,2.2,0.8c0.5,0,1.2-0.1,2.1-0.3v3.5
		c-1.1,0.3-2.2,0.5-3.3,0.5c-1.9,0-3.4-0.6-4.4-1.8s-1.5-2.8-1.5-5v-15.7h-4.6v-3.4h4.6v-6.1H630.5z"/>
	<path class="st2" d="M641.1,286.8c0-0.7,0.2-1.4,0.6-1.9c0.4-0.5,1.1-0.8,1.9-0.8s1.5,0.3,1.9,0.8s0.7,1.1,0.7,1.9
		s-0.2,1.4-0.7,1.9c-0.4,0.5-1.1,0.7-1.9,0.7s-1.5-0.2-1.9-0.7C641.3,288.2,641.1,287.6,641.1,286.8z M645.5,279h-3.9l-0.3-25.7h4.5
		L645.5,279z"/>
</g>
</svg>
